<?xml version="1.0" encoding="UTF-8"?>
<svg id="Layer_1" data-name="Layer 1" xmlns="http://www.w3.org/2000/svg" viewBox="0 0 544.22 544.22">
  <path style="fill: #1d4d3e" d="m272.11,0C2.1,0,0,121.83,0,272.11s2.1,272.11,272.11,272.11,272.11-121.83,272.11-272.11S542.12,0,272.11,0Z"/>
  <g>
    <path style="fill: #fff;" d="m354.47,190.28h4.88c17.95,0,19.39.28,37.33-.1,10.92-.23,19.43,4.04,26.56,11.76,9.15,9.92,14.79,21.83,18.47,34.62,11.29,39.23,10.76,78.14-4.11,116.45-3.7,9.54-8.95,18.24-16.4,25.43-6.64,6.41-14.39,9.66-23.86,9.65-97.01-.12-152.72-.15-249.73.03-10.89.02-19.42-3.98-26.57-11.71-7.37-7.98-12.54-17.33-16.02-27.52-14.18-41.49-13.95-82.87,1.78-123.92,3.47-9.05,8.5-17.28,15.39-24.24,6.9-6.98,15-10.58,25.1-10.52,38.8.23,52.83.05,91.63.16,3.22,0,4.89-.82,6.09-3.98,4.74-12.44,11.07-24.43,14.42-37.22,4.3-16.37,15.84-21.92,30.27-24.78,17.65-3.5,35.23-3.23,52.36,2.56,4.87,1.65,9.5,4.55,13.67,7.63,4.33,3.2,5.45,8.05,4.64,13.49-2.06,13.82-3.88,27.67-5.9,42.22Zm-247.41,95.28c-.01,22.85,2.65,42.08,9.86,60.51,3.53,9.03,8,17.53,15.21,24.26,7.82,7.29,16.31,7.73,23.84.16,4.66-4.68,9.15-10.17,11.79-16.14,18.68-42.35,18.68-85.18,1.23-127.87-2.72-6.64-7.44-12.81-12.4-18.11-7.72-8.24-16.84-8.28-24.56-.03-5.04,5.39-9.42,11.79-12.61,18.45-9.35,19.5-12.22,40.49-12.36,58.77Zm142.72-62.2c-21.64,0-18.49,0-40.13,0-1.19,0-2.38-.05-3.56.05-3.81.32-6.24,2.84-6.17,6.36.06,3.35,2.42,5.78,6.03,6.1,1.31.12,2.64.06,3.96.06,35.88,0,47,.58,82.86-.26,15.94-.37,30.54,1.79,43.91,10.61.33.22.7.36,1.06.53,4.85,2.37,6.54,2.08,10.48-1.82,1.69-1.67,3.58-3.19,4.99-5.07,2.58-3.44,5.89-4.13,9.99-4.08,16.75.19,16.99.09,33.74.08,1.32,0,2.65.05,3.95-.13,3.27-.47,5.5-3.09,5.33-6.31-.17-3.32-1.97-5.39-5.26-5.97-1.28-.23-2.63-.15-3.95-.15-15.83,0-15.16.45-30.97-.18-9.42-.37-17.4.9-23.19,9.12-.6.85-3.1,1.2-4.23.69-5.65-2.54-11.08-5.54-16.7-8.15-1.84-.86-4.01-1.42-6.04-1.43-22.03-.1-44.06-.06-66.09-.06Zm90.66,111.11c2.84,5.63,5.51,10.77,8.03,15.99,1.49,3.09,3.76,4.52,7.2,4.49,7.52-.08-1.48.02,6.04-.04,4.65-.04,7.48-2.53,7.42-6.36-.06-3.8-2.87-6.13-7.61-6.18-5.41-.05,5.69-.15.29.04-2.5.09-3.79-.85-4.82-3.04-2.7-5.72-5.57-11.37-8.45-17-2.9-5.67-7.16-6.41-11.65-1.99-6.39,6.3-12.79,12.59-19,19.06-2.1,2.19-4.27,2.98-7.28,2.97-42.35-.09-59.93-.06-102.29-.05-5.5,0-8.33,2.1-8.41,6.14-.09,4.18,2.85,6.42,8.53,6.42,43.81,0,62.84-.03,106.64.06,3.58,0,6.26-1.07,8.72-3.66,5.34-5.64,10.9-11.07,16.63-16.85Zm-22.34-49.08c1.68,1.97,3.37,3.82,4.9,5.8,2.66,3.42,6.05,4.45,10.38,4.4,18.2-.2,19.88-.08,38.07-.09,1.58,0,3.2.12,4.73-.15,4.82-.86,7.21-6.57,3.87-9.93-1.53-1.55-4.36-2.5-6.62-2.53-14.37-.22-12.25-.63-26.59.06-9.82.47-18.14-.96-23.92-9.65-.21-.32-.54-.58-.84-.84-3-2.62-6.26-2.67-9.19.05-2.51,2.33-5,4.71-7.27,7.27-1.98,2.24-4.16,3.12-7.21,3.06-9.62-.19-19.25-.1-28.88-.06-4.89.02-7.91,2.54-7.88,6.4.03,3.84,3.05,6.29,7.97,6.31,8.7.04,17.44-.46,26.1.15,8.25.58,15.05-1.12,19.97-8.14.43-.62,1.15-1.03,2.39-2.12Zm-7.56-130.09c10.78-.18,21.16-1.01,30.86-5.28,2.59-1.14,4.66-3.5,6.96-5.29-2.33-1.77-4.42-4.12-7.04-5.21-13.64-5.69-27.99-6.14-42.36-4.35-6.45.8-12.78,2.94-19,4.98-2.16.71-3.83,2.93-5.72,4.46,1.92,1.65,3.59,3.82,5.8,4.87,9.73,4.6,20.24,5.51,30.51,5.83Zm-73.55,140.22h0c5.93-.01-4.67.05,1.26-.04,4.33-.06,7.12-2.6,7.18-6.26.05-3.67-2.75-6.39-7.01-6.42-11.85-.08-7.18-.09-19.03,0-4.32.03-7.14,2.67-7.18,6.27-.04,3.81,2.89,6.4,7.4,6.43,5.79.04,11.59.01,17.38.01Zm163.01,59.4c3.56,0,7.11,0,10.67,0,.26,0,.53,0,.79,0,4.37-.15,7.14-2.54,7.19-6.2.05-3.69-2.71-6.28-7.04-6.33-7.77-.08-15.54-.09-23.31,0-4.32.05-7.06,2.68-6.98,6.38.07,3.54,2.74,6.02,6.84,6.13,3.95.11,7.9.02,11.85.03Z"/>
    <path style="fill: #fff;" d="m116.39,292.76c.54-18.25,2.52-32.51,10.82-45.13,2.87-4.37,6.45-8,11.49-9.91,1.95-.74,4.02-1.36,5.03,1.17.97,2.42-.6,3.48-2.72,4.31-6.99,2.75-10.47,8.77-12.92,15.23-7.53,19.87-7.64,39.96-.52,59.96,1.39,3.91,3.57,7.7,6.1,11,6.49,8.48,14.72,8.36,21.37-.06,5.46-6.91,7.98-15.1,9.49-23.6.74-4.14.81-8.41,1.62-12.53.28-1.42,1.89-2.58,2.89-3.86.94,1.33,2.71,2.68,2.68,3.99-.24,11.59-2.33,22.84-7.89,33.14-1.79,3.32-4.06,6.53-6.71,9.22-7.88,8.01-17.91,7.88-25.89-.09-6.27-6.26-9.76-14.13-11.62-22.57-1.72-7.81-2.54-15.83-3.23-20.27Z"/>
    <path style="fill: #fff;" d="m154,286.58c-.91-3.29-2.03-8.83-4.07-14.03-.82-2.09-3.71-4.84-5.49-4.72-2.11.14-4.84,2.67-5.86,4.84-1.76,3.74-2.57,7.97-3.44,12.07-.47,2.22-.78,4.69-3.53,3.96-1.14-.3-2.64-3.16-2.32-4.45,1.42-5.69,2.57-11.73,5.44-16.71,4.84-8.39,13.72-8.11,19.26-.16,7.49,10.74,7.58,32.69,0,43.41-1.33,1.88-3.21,3.51-5.16,4.76-.91.58-2.57-.02-3.9-.09.13-1.49-.32-3.73.47-4.34,7.47-5.71,7.65-13.98,8.59-24.53Z"/>
  </g>
</svg>